G04 PROTEUS GERBER X2 FILE*
%TF.GenerationSoftware,Labcenter,Proteus,8.11-SP0-Build30052*%
%TF.CreationDate,2025-07-28T14:08:05+00:00*%
%TF.FileFunction,Copper,L2,Bot*%
%TF.FilePolarity,Positive*%
%TF.Part,Single*%
%TF.SameCoordinates,{d1ed3150-9231-41ac-8ff8-2509d959ef78}*%
%FSLAX45Y45*%
%MOMM*%
G01*
%TA.AperFunction,Conductor*%
%ADD12C,0.508000*%
%ADD11C,0.228600*%
%ADD14C,0.190500*%
%ADD15C,0.203200*%
%ADD10C,0.254000*%
%TA.AperFunction,ViaPad*%
%ADD16C,0.600000*%
%ADD17C,0.762000*%
%ADD18C,0.508000*%
%TA.AperFunction,WasherPad*%
%ADD19C,1.524000*%
%TA.AperFunction,WasherPad*%
%ADD72C,1.397000*%
%TA.AperFunction,ComponentPad*%
%ADD30R,1.410000X1.410000*%
%ADD31C,1.410000*%
%TA.AperFunction,Profile*%
%ADD32C,0.203200*%
%TD.AperFunction*%
D12*
X-5214000Y+252000D02*
X-5214000Y+506000D01*
X-5214000Y+765519D02*
X-5214000Y+1014000D01*
X-5214000Y+506000D02*
X-5214000Y+765519D01*
D11*
X-5216362Y+767881D01*
X-5214000Y+760000D01*
X-5214000Y+1268000D02*
X-5214000Y+1276000D01*
D12*
X-5214000Y+1014000D02*
X-5214000Y+1276000D01*
D11*
X-5210000Y+1280000D01*
X-5214000Y+1268000D01*
D12*
X-5214000Y+1776000D02*
X-5214000Y+2030000D01*
X-5214000Y+1276000D02*
X-5214000Y+1522000D01*
D11*
X-5214000Y+2267231D02*
X-5214000Y+2284000D01*
D12*
X-5214000Y+2030000D02*
X-5214000Y+2267231D01*
D11*
X-2540000Y+1090000D02*
X-2033253Y+1090000D01*
X-1732592Y+789339D01*
X-2810000Y+1630000D02*
X-4852000Y+1630000D01*
X-4960000Y+1522000D01*
D14*
X-3612708Y+828700D02*
X-3612708Y+94765D01*
X-3864958Y-157485D01*
X-4295010Y-157485D01*
X-4300744Y-163219D01*
D15*
X-1720000Y-1460000D02*
X-2754656Y-1460000D01*
X-3834784Y-379872D01*
X-4582128Y-379872D01*
X-4960000Y-2000D01*
D11*
X-5214000Y+2284000D02*
X-5214000Y+2394278D01*
D12*
X-5214000Y+3264520D01*
X-5168900Y+3309620D01*
D11*
X-5214000Y+2394278D02*
X-5221912Y+2386366D01*
X-5221912Y+2275143D01*
X-5214000Y+2267231D01*
D12*
X-5214000Y+1522000D02*
X-5214000Y+1776000D01*
D11*
X-2524910Y+1303118D02*
X-2669401Y+1303118D01*
X-2782519Y+1190000D01*
X-4620000Y+1190000D01*
X-4960000Y+850000D01*
X-4960000Y+760000D01*
X-2532804Y+1603357D02*
X-2868939Y+1267222D01*
X-4750886Y+1267222D01*
X-4960000Y+1058108D01*
X-4960000Y+1014000D01*
D15*
X-3604098Y+1874829D02*
X-3604098Y+2355902D01*
X-3530000Y+2430000D01*
D12*
X-5214000Y+2394278D02*
X-5105091Y+2503187D01*
X-4836748Y+2503187D01*
X-4600000Y+2266439D01*
X-4600000Y+2080000D01*
D14*
X-670000Y-790000D02*
X-3233635Y-790000D01*
X-3238513Y-785122D01*
D11*
X-670000Y-590000D02*
X-875842Y-590000D01*
X-1313211Y-152631D01*
X-1313211Y+1001523D01*
X-1514867Y+1203179D01*
D14*
X-670000Y-990000D02*
X-2829177Y-990000D01*
X-2837461Y-981716D01*
D11*
X-1090000Y+1131114D02*
X-1090000Y-153555D01*
X-843368Y-400187D01*
X-680187Y-400187D01*
X-670000Y-390000D01*
X-670000Y-1190000D02*
X-565066Y-1085066D01*
X-565066Y-294934D01*
X-670000Y-190000D01*
D10*
X-3214420Y+2715822D02*
X-3214420Y+3178420D01*
X-3340000Y+3304000D01*
D11*
X-2293640Y+707792D02*
X-2694539Y+1108691D01*
X-3063248Y+1108691D01*
X-3063248Y+1103928D01*
D12*
X-3854299Y+3042536D02*
X-3845096Y+3051739D01*
X-3845096Y+3227800D01*
X-3848000Y+3304000D01*
X-3890000Y+2800000D02*
X-3890000Y+3006835D01*
X-3854299Y+3042536D01*
D11*
X-3848000Y+3050000D01*
D10*
X-3837439Y+2589164D02*
X-3460000Y+2966603D01*
X-3460000Y+3401346D01*
X-3412964Y+3448382D01*
X-3101454Y+3448382D01*
X-3070646Y+3417574D01*
X-3070646Y+3319354D01*
X-3086000Y+3304000D01*
D15*
X-2213570Y+2798937D02*
X-1970000Y+3042507D01*
X-1970000Y+3430000D01*
D12*
X-1720000Y-1460000D02*
X-524258Y-1460000D01*
X-360000Y-1295742D01*
X-360000Y+1106511D01*
X-684778Y+1431289D01*
D15*
X-3016759Y+290026D02*
X-2935642Y+290026D01*
X-2736227Y+489441D01*
X-2736227Y+492299D01*
D11*
X-3594000Y+3050000D02*
X-3594000Y+3330556D01*
X-3590000Y+3334556D01*
X-3594000Y+3304000D01*
D15*
X-3590000Y+3334556D02*
X-3590000Y+3308000D01*
X-3594000Y+3304000D01*
D11*
X-2810000Y+940000D02*
X-2697942Y+940000D01*
X-2646491Y+888549D01*
X-2646491Y+485140D01*
D10*
X-2646680Y+484951D01*
X-2646680Y+393700D01*
X-2546650Y+293670D01*
X-2022921Y+293670D01*
D11*
X-2580000Y+560000D02*
X-1655559Y+560000D01*
X-1472951Y+137226D02*
X-1472951Y+377392D01*
X-1655559Y+560000D01*
D15*
X-2725974Y+2189035D02*
X-2529205Y+1992266D01*
X-2343495Y+1992266D01*
D12*
X-2334262Y+1992266D02*
X-2343495Y+1992266D01*
X-2529205Y+1992266D02*
X-3486661Y+1992266D01*
X-3604098Y+1874829D01*
X-1260000Y+3560000D02*
X-4718520Y+3560000D01*
X-4968900Y+3309620D01*
X-2615000Y+2640000D02*
X-1680000Y+2640000D01*
X-1010000Y+3560000D02*
X-1020273Y+3489500D01*
X-1040000Y+2730000D01*
X-1070000Y+2590000D01*
X-1710000Y+2370000D01*
D16*
X-2540000Y+1090000D03*
X-2810000Y+1630000D03*
X-3612708Y+828700D03*
X-4300744Y-163219D03*
X-1732592Y+789339D03*
X-2524910Y+1303118D03*
D17*
X-2532804Y+1603357D03*
D16*
X-3530000Y+2430000D03*
D17*
X-4600000Y+2080000D03*
D16*
X-3238513Y-785122D03*
X-1514867Y+1203179D03*
X-2837461Y-981716D03*
D17*
X-1090000Y+1131114D03*
X-3214420Y+2715822D03*
D16*
X-2293640Y+707792D03*
X-3063248Y+1103928D03*
D17*
X-3890000Y+2800000D03*
X-3837439Y+2589164D03*
X-2213570Y+2798937D03*
X-1970000Y+3430000D03*
X-1720000Y-1460000D03*
X-684778Y+1431289D03*
X-3016759Y+290026D03*
X-2736227Y+492299D03*
D18*
X-2334262Y+1992266D03*
D16*
X-2810000Y+940000D03*
D17*
X-2022921Y+293670D03*
D18*
X-3604098Y+1874829D03*
X-2580000Y+560000D03*
D17*
X-1472951Y+137226D03*
D18*
X-2725974Y+2189035D03*
D17*
X-2615000Y+2640000D03*
X-1680000Y+2640000D03*
X-1710000Y+2370000D03*
D19*
X-4960000Y-2000D03*
X-5214000Y-2000D03*
X-4960000Y+252000D03*
X-5214000Y+252000D03*
X-4960000Y+506000D03*
X-5214000Y+506000D03*
X-4960000Y+760000D03*
X-5214000Y+760000D03*
X-4960000Y+1014000D03*
X-5214000Y+1014000D03*
X-4960000Y+1268000D03*
X-5214000Y+1268000D03*
X-4960000Y+1522000D03*
X-5214000Y+1522000D03*
X-4960000Y+1776000D03*
X-5214000Y+1776000D03*
X-4960000Y+2030000D03*
X-5214000Y+2030000D03*
X-4960000Y+2284000D03*
X-5214000Y+2284000D03*
D72*
X-5168900Y+3309620D03*
X-4968900Y+3309620D03*
D19*
X-4102000Y+3050000D03*
X-4102000Y+3304000D03*
X-3848000Y+3050000D03*
X-3848000Y+3304000D03*
X-3594000Y+3050000D03*
X-3594000Y+3304000D03*
X-3340000Y+3050000D03*
X-3340000Y+3304000D03*
X-3086000Y+3050000D03*
X-3086000Y+3304000D03*
X-2832000Y+3050000D03*
X-2832000Y+3304000D03*
X-2578000Y+3050000D03*
X-2578000Y+3304000D03*
X-2324000Y+3050000D03*
X-2324000Y+3304000D03*
D72*
X-670000Y-190000D03*
X-670000Y-390000D03*
X-670000Y-590000D03*
X-670000Y-790000D03*
X-670000Y-990000D03*
X-670000Y-1190000D03*
D30*
X-1260000Y+3560000D03*
D31*
X-1010000Y+3560000D03*
X-760000Y+3560000D03*
D32*
X-5674680Y-1982760D02*
X-74320Y-1982760D01*
X-74320Y+3859660D01*
X-5674680Y+3859660D01*
X-5674680Y-1982760D01*
M02*
