G04 PROTEUS GERBER X2 FILE*
%TF.GenerationSoftware,Labcenter,Proteus,8.11-SP0-Build30052*%
%TF.CreationDate,2025-07-28T14:08:05+00:00*%
%TF.FileFunction,Soldermask,Bot*%
%TF.FilePolarity,Negative*%
%TF.Part,Single*%
%TF.SameCoordinates,{d1ed3150-9231-41ac-8ff8-2509d959ef78}*%
%FSLAX45Y45*%
%MOMM*%
G01*
%TA.AperFunction,Material*%
%ADD40C,0.600000*%
%ADD41C,1.016000*%
%ADD42C,0.812800*%
%TA.AperFunction,Material*%
%ADD43C,2.032000*%
%TA.AperFunction,Material*%
%ADD55C,1.651000*%
%AMPPAD051*
4,1,36,
-0.705000,0.755000,
0.705000,0.755000,
0.715220,0.754000,
0.724680,0.751140,
0.733180,0.746590,
0.740540,0.740540,
0.746590,0.733180,
0.751140,0.724680,
0.754000,0.715220,
0.755000,0.705000,
0.755000,-0.705000,
0.754000,-0.715220,
0.751140,-0.724680,
0.746590,-0.733180,
0.740540,-0.740540,
0.733180,-0.746590,
0.724680,-0.751140,
0.715220,-0.754000,
0.705000,-0.755000,
-0.705000,-0.755000,
-0.715220,-0.754000,
-0.724680,-0.751140,
-0.733180,-0.746590,
-0.740540,-0.740540,
-0.746590,-0.733180,
-0.751140,-0.724680,
-0.754000,-0.715220,
-0.755000,-0.705000,
-0.755000,0.705000,
-0.754000,0.715220,
-0.751140,0.724680,
-0.746590,0.733180,
-0.740540,0.740540,
-0.733180,0.746590,
-0.724680,0.751140,
-0.715220,0.754000,
-0.705000,0.755000,
0*%
%TA.AperFunction,Material*%
%ADD57PPAD051*%
%ADD58C,1.510000*%
%TA.AperFunction,Profile*%
%ADD32C,0.203200*%
%TD.AperFunction*%
D40*
X-2540000Y+1090000D03*
X-2810000Y+1630000D03*
X-3612708Y+828700D03*
X-4300744Y-163219D03*
X-1732592Y+789339D03*
X-2524910Y+1303118D03*
D41*
X-2532804Y+1603357D03*
D40*
X-3530000Y+2430000D03*
D41*
X-4600000Y+2080000D03*
D40*
X-3238513Y-785122D03*
X-1514867Y+1203179D03*
X-2837461Y-981716D03*
D41*
X-1090000Y+1131114D03*
X-3214420Y+2715822D03*
D40*
X-2293640Y+707792D03*
X-3063248Y+1103928D03*
D41*
X-3890000Y+2800000D03*
X-3837439Y+2589164D03*
X-2213570Y+2798937D03*
X-1970000Y+3430000D03*
X-1720000Y-1460000D03*
X-684778Y+1431289D03*
X-3016759Y+290026D03*
X-2736227Y+492299D03*
D42*
X-2334262Y+1992266D03*
D40*
X-2810000Y+940000D03*
D41*
X-2022921Y+293670D03*
D42*
X-3604098Y+1874829D03*
X-2580000Y+560000D03*
D41*
X-1472951Y+137226D03*
D42*
X-2725974Y+2189035D03*
D41*
X-2615000Y+2640000D03*
X-1680000Y+2640000D03*
X-1710000Y+2370000D03*
D43*
X-4960000Y-2000D03*
X-5214000Y-2000D03*
X-4960000Y+252000D03*
X-5214000Y+252000D03*
X-4960000Y+506000D03*
X-5214000Y+506000D03*
X-4960000Y+760000D03*
X-5214000Y+760000D03*
X-4960000Y+1014000D03*
X-5214000Y+1014000D03*
X-4960000Y+1268000D03*
X-5214000Y+1268000D03*
X-4960000Y+1522000D03*
X-5214000Y+1522000D03*
X-4960000Y+1776000D03*
X-5214000Y+1776000D03*
X-4960000Y+2030000D03*
X-5214000Y+2030000D03*
X-4960000Y+2284000D03*
X-5214000Y+2284000D03*
D55*
X-5168900Y+3309620D03*
X-4968900Y+3309620D03*
D43*
X-4102000Y+3050000D03*
X-4102000Y+3304000D03*
X-3848000Y+3050000D03*
X-3848000Y+3304000D03*
X-3594000Y+3050000D03*
X-3594000Y+3304000D03*
X-3340000Y+3050000D03*
X-3340000Y+3304000D03*
X-3086000Y+3050000D03*
X-3086000Y+3304000D03*
X-2832000Y+3050000D03*
X-2832000Y+3304000D03*
X-2578000Y+3050000D03*
X-2578000Y+3304000D03*
X-2324000Y+3050000D03*
X-2324000Y+3304000D03*
D55*
X-670000Y-190000D03*
X-670000Y-390000D03*
X-670000Y-590000D03*
X-670000Y-790000D03*
X-670000Y-990000D03*
X-670000Y-1190000D03*
D57*
X-1260000Y+3560000D03*
D58*
X-1010000Y+3560000D03*
X-760000Y+3560000D03*
D32*
X-5674680Y-1982760D02*
X-74320Y-1982760D01*
X-74320Y+3859660D01*
X-5674680Y+3859660D01*
X-5674680Y-1982760D01*
M02*
