G04 PROTEUS GERBER X2 FILE*
%TF.GenerationSoftware,Labcenter,Proteus,8.11-SP0-Build30052*%
%TF.CreationDate,2025-07-28T14:08:05+00:00*%
%TF.FileFunction,Legend,Top*%
%TF.FilePolarity,Positive*%
%TF.Part,Single*%
%TF.SameCoordinates,{d1ed3150-9231-41ac-8ff8-2509d959ef78}*%
%FSLAX45Y45*%
%MOMM*%
G01*
%TA.AperFunction,Material*%
%ADD33C,0.508000*%
%ADD34C,0.152400*%
%ADD35C,0.203200*%
%ADD36C,0.200000*%
%ADD37C,0.127000*%
%ADD38C,0.063500*%
%TA.AperFunction,Profile*%
%ADD32C,0.203200*%
%TA.AperFunction,Material*%
%ADD39C,0.101600*%
%TD.AperFunction*%
D33*
X-4731400Y-2000D02*
X-4731531Y+1158D01*
X-4732597Y+7476D01*
X-4734828Y+13794D01*
X-4738473Y+20112D01*
X-4744048Y+26351D01*
X-4750366Y+30947D01*
X-4756684Y+33880D01*
X-4763002Y+35542D01*
X-4769320Y+36100D01*
X-4769500Y+36100D01*
X-4807600Y-2000D02*
X-4807469Y+1158D01*
X-4806403Y+7476D01*
X-4804172Y+13794D01*
X-4800527Y+20112D01*
X-4794952Y+26351D01*
X-4788634Y+30947D01*
X-4782316Y+33880D01*
X-4775998Y+35542D01*
X-4769680Y+36100D01*
X-4769500Y+36100D01*
X-4807600Y-2000D02*
X-4807469Y-5158D01*
X-4806403Y-11476D01*
X-4804172Y-17794D01*
X-4800527Y-24112D01*
X-4794952Y-30351D01*
X-4788634Y-34947D01*
X-4782316Y-37880D01*
X-4775998Y-39542D01*
X-4769680Y-40100D01*
X-4769500Y-40100D01*
X-4731400Y-2000D02*
X-4731531Y-5158D01*
X-4732597Y-11476D01*
X-4734828Y-17794D01*
X-4738473Y-24112D01*
X-4744048Y-30351D01*
X-4750366Y-34947D01*
X-4756684Y-37880D01*
X-4763002Y-39542D01*
X-4769320Y-40100D01*
X-4769500Y-40100D01*
D34*
X-4756800Y-484600D02*
X-4756800Y+2766600D01*
X-5417200Y+2766600D01*
X-5417200Y-484600D01*
X-4756800Y-484600D01*
D35*
X-5495780Y+1104000D02*
X-5480540Y+1104000D01*
X-5465300Y+1119875D01*
X-5465300Y+1183375D01*
X-5480540Y+1199250D01*
X-5556740Y+1199250D01*
X-5541500Y+1246875D02*
X-5556740Y+1262750D01*
X-5556740Y+1310375D01*
X-5541500Y+1326250D01*
X-5526260Y+1326250D01*
X-5511020Y+1310375D01*
X-5495780Y+1326250D01*
X-5480540Y+1326250D01*
X-5465300Y+1310375D01*
X-5465300Y+1262750D01*
X-5480540Y+1246875D01*
X-5511020Y+1278625D02*
X-5511020Y+1310375D01*
X-3220000Y+1710000D02*
X-2360000Y+1710000D01*
X-3220000Y+790000D02*
X-2360000Y+790000D01*
X-3250000Y+1680000D02*
X-3250000Y+820000D01*
X-2330000Y+1680000D02*
X-2330000Y+820000D01*
X-3250000Y+1680000D02*
X-3220000Y+1710000D01*
X-2360000Y+1710000D02*
X-2330000Y+1710000D01*
X-2330000Y+820000D01*
X-2330000Y+790000D01*
X-2360000Y+790000D01*
X-3220000Y+790000D02*
X-3250000Y+790000D01*
X-3250000Y+820000D01*
X-3200000Y+1665000D02*
X-3200035Y+1665831D01*
X-3200316Y+1667495D01*
X-3200906Y+1669159D01*
X-3201870Y+1670823D01*
X-3203345Y+1672464D01*
X-3205009Y+1673665D01*
X-3206673Y+1674430D01*
X-3208337Y+1674861D01*
X-3210000Y+1675000D01*
X-3220000Y+1665000D02*
X-3219965Y+1665831D01*
X-3219684Y+1667495D01*
X-3219094Y+1669159D01*
X-3218130Y+1670823D01*
X-3216655Y+1672464D01*
X-3214991Y+1673665D01*
X-3213327Y+1674430D01*
X-3211663Y+1674861D01*
X-3210000Y+1675000D01*
X-3220000Y+1665000D02*
X-3219965Y+1664169D01*
X-3219684Y+1662505D01*
X-3219094Y+1660841D01*
X-3218130Y+1659177D01*
X-3216655Y+1657536D01*
X-3214991Y+1656335D01*
X-3213327Y+1655570D01*
X-3211663Y+1655139D01*
X-3210000Y+1655000D01*
X-3200000Y+1665000D02*
X-3200035Y+1664169D01*
X-3200316Y+1662505D01*
X-3200906Y+1660841D01*
X-3201870Y+1659177D01*
X-3203345Y+1657536D01*
X-3205009Y+1656335D01*
X-3206673Y+1655570D01*
X-3208337Y+1655139D01*
X-3210000Y+1655000D01*
X-2917000Y+2055720D02*
X-2917000Y+1979520D01*
X-2901125Y+1964280D01*
X-2837625Y+1964280D01*
X-2821750Y+1979520D01*
X-2821750Y+2055720D01*
X-2758250Y+2025240D02*
X-2726500Y+2055720D01*
X-2726500Y+1964280D01*
X-1467500Y+1947500D02*
X-1467500Y+1871300D01*
X-832500Y+1871300D01*
X-832500Y+1947500D01*
X-1188100Y+1871300D02*
X-1188100Y+1820500D01*
X-1111900Y+1820500D01*
X-1111900Y+1871300D01*
X-1416700Y+1871300D02*
X-1416700Y+1795100D01*
X-1353200Y+1795100D01*
X-1353200Y+1871300D01*
X-883300Y+1871300D02*
X-883300Y+1795100D01*
X-946800Y+1795100D01*
X-946800Y+1871300D02*
X-946800Y+1795100D01*
X-1599580Y+1959565D02*
X-1523380Y+1959565D01*
X-1508140Y+1975440D01*
X-1508140Y+2038940D01*
X-1523380Y+2054815D01*
X-1599580Y+2054815D01*
X-1584340Y+2102440D02*
X-1599580Y+2118315D01*
X-1599580Y+2165940D01*
X-1584340Y+2181815D01*
X-1569100Y+2181815D01*
X-1553860Y+2165940D01*
X-1538620Y+2181815D01*
X-1523380Y+2181815D01*
X-1508140Y+2165940D01*
X-1508140Y+2118315D01*
X-1523380Y+2102440D01*
X-1553860Y+2134190D02*
X-1553860Y+2165940D01*
X-1501750Y+1803320D02*
X-1517625Y+1788080D01*
X-1565250Y+1788080D01*
X-1597000Y+1818560D01*
X-1597000Y+1849040D01*
X-1565250Y+1879520D01*
X-1517625Y+1879520D01*
X-1501750Y+1864280D01*
X-1374750Y+1864280D02*
X-1390625Y+1879520D01*
X-1438250Y+1879520D01*
X-1454125Y+1864280D01*
X-1454125Y+1803320D01*
X-1438250Y+1788080D01*
X-1390625Y+1788080D01*
X-1374750Y+1803320D01*
X-1374750Y+1818560D01*
X-1390625Y+1833800D01*
X-1454125Y+1833800D01*
D36*
X-910000Y+1240000D02*
X-990000Y+1240000D01*
D35*
X-758080Y+1113000D02*
X-849520Y+1113000D01*
X-849520Y+1192375D01*
X-834280Y+1208250D01*
X-819040Y+1208250D01*
X-803800Y+1192375D01*
X-803800Y+1113000D01*
X-803800Y+1192375D02*
X-788560Y+1208250D01*
X-758080Y+1208250D01*
X-819040Y+1335250D02*
X-803800Y+1319375D01*
X-803800Y+1271750D01*
X-819040Y+1255875D01*
X-834280Y+1255875D01*
X-849520Y+1271750D01*
X-849520Y+1319375D01*
X-834280Y+1335250D01*
X-773320Y+1335250D01*
X-758080Y+1319375D01*
X-758080Y+1271750D01*
X-2263320Y+1718250D02*
X-2248080Y+1702375D01*
X-2248080Y+1654750D01*
X-2278560Y+1623000D01*
X-2309040Y+1623000D01*
X-2339520Y+1654750D01*
X-2339520Y+1702375D01*
X-2324280Y+1718250D01*
X-2324280Y+1765875D02*
X-2339520Y+1781750D01*
X-2339520Y+1829375D01*
X-2324280Y+1845250D01*
X-2309040Y+1845250D01*
X-2293800Y+1829375D01*
X-2278560Y+1845250D01*
X-2263320Y+1845250D01*
X-2248080Y+1829375D01*
X-2248080Y+1781750D01*
X-2263320Y+1765875D01*
X-2293800Y+1797625D02*
X-2293800Y+1829375D01*
D36*
X-540000Y+1830000D02*
X-620000Y+1830000D01*
D35*
X-388080Y+1703000D02*
X-479520Y+1703000D01*
X-479520Y+1766500D01*
X-449040Y+1798250D01*
X-418560Y+1798250D01*
X-388080Y+1766500D01*
X-388080Y+1703000D01*
X-418560Y+1925250D02*
X-418560Y+1830000D01*
X-479520Y+1893500D01*
X-388080Y+1893500D01*
D36*
X-3310000Y+2480000D02*
X-3390000Y+2480000D01*
D35*
X-3178080Y+2353000D02*
X-3269520Y+2353000D01*
X-3269520Y+2432375D01*
X-3254280Y+2448250D01*
X-3239040Y+2448250D01*
X-3223800Y+2432375D01*
X-3223800Y+2353000D01*
X-3223800Y+2432375D02*
X-3208560Y+2448250D01*
X-3178080Y+2448250D01*
X-3254280Y+2495875D02*
X-3269520Y+2511750D01*
X-3269520Y+2559375D01*
X-3254280Y+2575250D01*
X-3239040Y+2575250D01*
X-3223800Y+2559375D01*
X-3223800Y+2511750D01*
X-3208560Y+2495875D01*
X-3178080Y+2495875D01*
X-3178080Y+2575250D01*
D36*
X-3420000Y+2180000D02*
X-3420000Y+2260000D01*
D35*
X-3547000Y+2048080D02*
X-3547000Y+2139520D01*
X-3467625Y+2139520D01*
X-3451750Y+2124280D01*
X-3451750Y+2109040D01*
X-3467625Y+2093800D01*
X-3547000Y+2093800D01*
X-3467625Y+2093800D02*
X-3451750Y+2078560D01*
X-3451750Y+2048080D01*
X-3404125Y+2124280D02*
X-3388250Y+2139520D01*
X-3340625Y+2139520D01*
X-3324750Y+2124280D01*
X-3324750Y+2109040D01*
X-3340625Y+2093800D01*
X-3324750Y+2078560D01*
X-3324750Y+2063320D01*
X-3340625Y+2048080D01*
X-3388250Y+2048080D01*
X-3404125Y+2063320D01*
X-3372375Y+2093800D02*
X-3340625Y+2093800D01*
D36*
X-3790000Y+2390000D02*
X-3870000Y+2390000D01*
D35*
X-3658080Y+2263000D02*
X-3749520Y+2263000D01*
X-3749520Y+2342375D01*
X-3734280Y+2358250D01*
X-3719040Y+2358250D01*
X-3703800Y+2342375D01*
X-3703800Y+2263000D01*
X-3703800Y+2342375D02*
X-3688560Y+2358250D01*
X-3658080Y+2358250D01*
X-3688560Y+2485250D02*
X-3688560Y+2390000D01*
X-3749520Y+2453500D01*
X-3658080Y+2453500D01*
D36*
X-3930000Y+2100000D02*
X-3930000Y+2180000D01*
D35*
X-4057000Y+1968080D02*
X-4057000Y+2059520D01*
X-3977625Y+2059520D01*
X-3961750Y+2044280D01*
X-3961750Y+2029040D01*
X-3977625Y+2013800D01*
X-4057000Y+2013800D01*
X-3977625Y+2013800D02*
X-3961750Y+1998560D01*
X-3961750Y+1968080D01*
X-3834750Y+2059520D02*
X-3914125Y+2059520D01*
X-3914125Y+2029040D01*
X-3850625Y+2029040D01*
X-3834750Y+2013800D01*
X-3834750Y+1983320D01*
X-3850625Y+1968080D01*
X-3898250Y+1968080D01*
X-3914125Y+1983320D01*
D36*
X-1140000Y+880000D02*
X-1060000Y+880000D01*
D35*
X-1180480Y+753000D02*
X-1271920Y+753000D01*
X-1271920Y+832375D01*
X-1256680Y+848250D01*
X-1241440Y+848250D01*
X-1226200Y+832375D01*
X-1226200Y+753000D01*
X-1226200Y+832375D02*
X-1210960Y+848250D01*
X-1180480Y+848250D01*
X-1256680Y+975250D02*
X-1271920Y+959375D01*
X-1271920Y+911750D01*
X-1256680Y+895875D01*
X-1195720Y+895875D01*
X-1180480Y+911750D01*
X-1180480Y+959375D01*
X-1195720Y+975250D01*
X-1210960Y+975250D01*
X-1226200Y+959375D01*
X-1226200Y+895875D01*
D36*
X-1304920Y+60000D02*
X-1224920Y+60000D01*
D35*
X-1345400Y-67000D02*
X-1436840Y-67000D01*
X-1436840Y+12375D01*
X-1421600Y+28250D01*
X-1406360Y+28250D01*
X-1391120Y+12375D01*
X-1391120Y-67000D01*
X-1391120Y+12375D02*
X-1375880Y+28250D01*
X-1345400Y+28250D01*
X-1436840Y+75875D02*
X-1436840Y+155250D01*
X-1421600Y+155250D01*
X-1345400Y+75875D01*
D36*
X-1282060Y+490000D02*
X-1202060Y+490000D01*
D35*
X-1322540Y+363000D02*
X-1413980Y+363000D01*
X-1413980Y+442375D01*
X-1398740Y+458250D01*
X-1383500Y+458250D01*
X-1368260Y+442375D01*
X-1368260Y+363000D01*
X-1368260Y+442375D02*
X-1353020Y+458250D01*
X-1322540Y+458250D01*
X-1368260Y+521750D02*
X-1383500Y+505875D01*
X-1398740Y+505875D01*
X-1413980Y+521750D01*
X-1413980Y+569375D01*
X-1398740Y+585250D01*
X-1383500Y+585250D01*
X-1368260Y+569375D01*
X-1368260Y+521750D01*
X-1353020Y+505875D01*
X-1337780Y+505875D01*
X-1322540Y+521750D01*
X-1322540Y+569375D01*
X-1337780Y+585250D01*
X-1353020Y+585250D01*
X-1368260Y+569375D01*
D36*
X-640000Y+870000D02*
X-640000Y+790000D01*
D35*
X-797000Y+940480D02*
X-797000Y+1031920D01*
X-733500Y+1031920D01*
X-701750Y+1001440D01*
X-701750Y+970960D01*
X-733500Y+940480D01*
X-797000Y+940480D01*
X-638250Y+1001440D02*
X-606500Y+1031920D01*
X-606500Y+940480D01*
D36*
X-738600Y+27620D02*
X-738600Y-52380D01*
D35*
X-865600Y+68100D02*
X-865600Y+159540D01*
X-802100Y+159540D01*
X-770350Y+129060D01*
X-770350Y+98580D01*
X-802100Y+68100D01*
X-865600Y+68100D01*
X-722725Y+144300D02*
X-706850Y+159540D01*
X-659225Y+159540D01*
X-643350Y+144300D01*
X-643350Y+129060D01*
X-659225Y+113820D01*
X-706850Y+113820D01*
X-722725Y+98580D01*
X-722725Y+68100D01*
X-643350Y+68100D01*
D36*
X-737860Y+450000D02*
X-737860Y+370000D01*
D35*
X-954860Y+490480D02*
X-954860Y+581920D01*
X-891360Y+581920D01*
X-859610Y+551440D01*
X-859610Y+520960D01*
X-891360Y+490480D01*
X-954860Y+490480D01*
X-811985Y+566680D02*
X-796110Y+581920D01*
X-748485Y+581920D01*
X-732610Y+566680D01*
X-732610Y+551440D01*
X-748485Y+536200D01*
X-732610Y+520960D01*
X-732610Y+505720D01*
X-748485Y+490480D01*
X-796110Y+490480D01*
X-811985Y+505720D01*
X-780235Y+536200D02*
X-748485Y+536200D01*
D37*
X-3670000Y+1530000D02*
X-3670000Y+1030000D01*
X-3990000Y+1530000D02*
X-3990000Y+1030000D01*
D35*
X-3633170Y+1153000D02*
X-3556970Y+1153000D01*
X-3541730Y+1168875D01*
X-3541730Y+1232375D01*
X-3556970Y+1248250D01*
X-3633170Y+1248250D01*
X-3617930Y+1295875D02*
X-3633170Y+1311750D01*
X-3633170Y+1359375D01*
X-3617930Y+1375250D01*
X-3602690Y+1375250D01*
X-3587450Y+1359375D01*
X-3587450Y+1311750D01*
X-3572210Y+1295875D01*
X-3541730Y+1295875D01*
X-3541730Y+1375250D01*
D37*
X-4315000Y-1325000D02*
X-4915000Y-1325000D01*
X-4915000Y-725000D01*
X-4315000Y-725000D01*
X-4315000Y-1325000D02*
X-4315000Y-725000D01*
D36*
X-4375000Y-400000D02*
X-4375035Y-399169D01*
X-4375316Y-397505D01*
X-4375906Y-395841D01*
X-4376870Y-394177D01*
X-4378345Y-392536D01*
X-4380009Y-391335D01*
X-4381673Y-390570D01*
X-4383337Y-390139D01*
X-4385000Y-390000D01*
X-4395000Y-400000D02*
X-4394965Y-399169D01*
X-4394684Y-397505D01*
X-4394094Y-395841D01*
X-4393130Y-394177D01*
X-4391655Y-392536D01*
X-4389991Y-391335D01*
X-4388327Y-390570D01*
X-4386663Y-390139D01*
X-4385000Y-390000D01*
X-4395000Y-400000D02*
X-4394965Y-400831D01*
X-4394684Y-402495D01*
X-4394094Y-404159D01*
X-4393130Y-405823D01*
X-4391655Y-407464D01*
X-4389991Y-408665D01*
X-4388327Y-409430D01*
X-4386663Y-409861D01*
X-4385000Y-410000D01*
X-4375000Y-400000D02*
X-4375035Y-400831D01*
X-4375316Y-402495D01*
X-4375906Y-404159D01*
X-4376870Y-405823D01*
X-4378345Y-407464D01*
X-4380009Y-408665D01*
X-4381673Y-409430D01*
X-4383337Y-409861D01*
X-4385000Y-410000D01*
D35*
X-4278170Y-1123250D02*
X-4201970Y-1123250D01*
X-4186730Y-1107375D01*
X-4186730Y-1043875D01*
X-4201970Y-1028000D01*
X-4278170Y-1028000D01*
X-4217210Y-901000D02*
X-4217210Y-996250D01*
X-4278170Y-932750D01*
X-4186730Y-932750D01*
X-4165720Y+1478250D02*
X-4150480Y+1462375D01*
X-4150480Y+1414750D01*
X-4180960Y+1383000D01*
X-4211440Y+1383000D01*
X-4241920Y+1414750D01*
X-4241920Y+1462375D01*
X-4226680Y+1478250D01*
X-4211440Y+1541750D02*
X-4241920Y+1573500D01*
X-4150480Y+1573500D01*
X-3800720Y+998250D02*
X-3785480Y+982375D01*
X-3785480Y+934750D01*
X-3815960Y+903000D01*
X-3846440Y+903000D01*
X-3876920Y+934750D01*
X-3876920Y+982375D01*
X-3861680Y+998250D01*
X-3861680Y+1045875D02*
X-3876920Y+1061750D01*
X-3876920Y+1109375D01*
X-3861680Y+1125250D01*
X-3846440Y+1125250D01*
X-3831200Y+1109375D01*
X-3831200Y+1061750D01*
X-3815960Y+1045875D01*
X-3785480Y+1045875D01*
X-3785480Y+1125250D01*
D36*
X-4010000Y+1790000D02*
X-4010000Y+1870000D01*
D35*
X-4137000Y+1658080D02*
X-4137000Y+1749520D01*
X-4057625Y+1749520D01*
X-4041750Y+1734280D01*
X-4041750Y+1719040D01*
X-4057625Y+1703800D01*
X-4137000Y+1703800D01*
X-4057625Y+1703800D02*
X-4041750Y+1688560D01*
X-4041750Y+1658080D01*
X-3978250Y+1719040D02*
X-3946500Y+1749520D01*
X-3946500Y+1658080D01*
X-5065720Y-831750D02*
X-5050480Y-847625D01*
X-5050480Y-895250D01*
X-5080960Y-927000D01*
X-5111440Y-927000D01*
X-5141920Y-895250D01*
X-5141920Y-847625D01*
X-5126680Y-831750D01*
X-5080960Y-704750D02*
X-5080960Y-800000D01*
X-5141920Y-736500D01*
X-5050480Y-736500D01*
X-1575720Y+888250D02*
X-1560480Y+872375D01*
X-1560480Y+824750D01*
X-1590960Y+793000D01*
X-1621440Y+793000D01*
X-1651920Y+824750D01*
X-1651920Y+872375D01*
X-1636680Y+888250D01*
X-1651920Y+1015250D02*
X-1651920Y+935875D01*
X-1621440Y+935875D01*
X-1621440Y+999375D01*
X-1606200Y+1015250D01*
X-1575720Y+1015250D01*
X-1560480Y+999375D01*
X-1560480Y+951750D01*
X-1575720Y+935875D01*
X-1661000Y-1522000D02*
X-1661000Y+398000D01*
X-1781000Y-1522000D02*
X-1781000Y+398000D01*
X-1661000Y+398000D02*
X-1781000Y+398000D01*
X-3861000Y-1492000D02*
X-3861000Y+428000D01*
X-3981000Y-1492000D02*
X-3981000Y+428000D01*
X-3861000Y+428000D02*
X-3981000Y+428000D01*
X-1661000Y-1522000D02*
X-1781000Y-1522000D01*
X-3981000Y-1522000D02*
X-3981000Y-1482000D01*
X-3861000Y-1522000D02*
X-3861000Y-1472000D01*
X-3981000Y-1522000D02*
X-3861000Y-1522000D01*
X-4061000Y-1572000D02*
X-1561000Y-1572000D01*
X-1561000Y+498000D01*
X-4061000Y+498000D01*
X-4061000Y-1572000D01*
X-3210000Y-1230800D02*
X-3210000Y-1383200D01*
X-3057600Y-1383200D01*
X-3006800Y-1281600D02*
X-2956000Y-1230800D01*
X-2905200Y-1230800D01*
X-2854400Y-1281600D01*
X-2854400Y-1332400D01*
X-2905200Y-1383200D01*
X-2956000Y-1383200D01*
X-3006800Y-1332400D01*
X-3006800Y-1281600D01*
X-2803600Y-1383200D02*
X-2803600Y-1230800D01*
X-2676600Y-1230800D01*
X-2651200Y-1256200D01*
X-2651200Y-1281600D01*
X-2676600Y-1307000D01*
X-2803600Y-1307000D01*
X-2676600Y-1307000D02*
X-2651200Y-1332400D01*
X-2651200Y-1383200D01*
X-2600400Y-1383200D02*
X-2600400Y-1281600D01*
X-2549600Y-1230800D01*
X-2498800Y-1230800D01*
X-2448000Y-1281600D01*
X-2448000Y-1383200D01*
X-2600400Y-1332400D02*
X-2448000Y-1332400D01*
X-2938000Y+569120D02*
X-2938000Y+553880D01*
X-2922125Y+538640D01*
X-2858625Y+538640D01*
X-2842750Y+553880D01*
X-2842750Y+630080D01*
X-2715750Y+569120D02*
X-2811000Y+569120D01*
X-2747500Y+630080D01*
X-2747500Y+538640D01*
D33*
X-5130800Y+3119120D02*
X-5130931Y+3122278D01*
X-5131997Y+3128596D01*
X-5134228Y+3134914D01*
X-5137873Y+3141232D01*
X-5143448Y+3147471D01*
X-5149766Y+3152067D01*
X-5156084Y+3155000D01*
X-5162402Y+3156662D01*
X-5168720Y+3157220D01*
X-5168900Y+3157220D01*
X-5207000Y+3119120D02*
X-5206869Y+3122278D01*
X-5205803Y+3128596D01*
X-5203572Y+3134914D01*
X-5199927Y+3141232D01*
X-5194352Y+3147471D01*
X-5188034Y+3152067D01*
X-5181716Y+3155000D01*
X-5175398Y+3156662D01*
X-5169080Y+3157220D01*
X-5168900Y+3157220D01*
X-5207000Y+3119120D02*
X-5206869Y+3115962D01*
X-5205803Y+3109644D01*
X-5203572Y+3103326D01*
X-5199927Y+3097008D01*
X-5194352Y+3090769D01*
X-5188034Y+3086173D01*
X-5181716Y+3083240D01*
X-5175398Y+3081578D01*
X-5169080Y+3081020D01*
X-5168900Y+3081020D01*
X-5130800Y+3119120D02*
X-5130931Y+3115962D01*
X-5131997Y+3109644D01*
X-5134228Y+3103326D01*
X-5137873Y+3097008D01*
X-5143448Y+3090769D01*
X-5149766Y+3086173D01*
X-5156084Y+3083240D01*
X-5162402Y+3081578D01*
X-5168720Y+3081020D01*
X-5168900Y+3081020D01*
D34*
X-5317820Y+3208960D02*
X-5191307Y+3208960D01*
X-4819980Y+3208960D02*
X-4819980Y+3409620D01*
X-4943709Y+3409620D01*
X-5317820Y+3409620D02*
X-5317820Y+3208960D01*
X-4946493Y+3208960D02*
X-4819980Y+3208960D01*
X-4994091Y+3409620D02*
X-5143709Y+3409620D01*
X-5194091Y+3409620D02*
X-5317820Y+3409620D01*
X-5146493Y+3208960D02*
X-4991307Y+3208960D01*
D35*
X-5195900Y+3478200D02*
X-5195900Y+3462960D01*
X-5180025Y+3447720D01*
X-5116525Y+3447720D01*
X-5100650Y+3462960D01*
X-5100650Y+3539160D01*
X-5037150Y+3508680D02*
X-5005400Y+3539160D01*
X-5005400Y+3447720D01*
X-5412740Y-1653540D02*
X-5317490Y-1653540D01*
X-5365115Y-1653540D02*
X-5365115Y-1729740D01*
X-5285740Y-1717040D02*
X-5269865Y-1729740D01*
X-5206365Y-1729740D01*
X-5190490Y-1717040D01*
X-5190490Y-1704340D01*
X-5206365Y-1691640D01*
X-5269865Y-1691640D01*
X-5285740Y-1678940D01*
X-5285740Y-1666240D01*
X-5269865Y-1653540D01*
X-5206365Y-1653540D01*
X-5190490Y-1666240D01*
X-5158740Y-1678940D02*
X-5126990Y-1653540D01*
X-5095240Y-1653540D01*
X-5063490Y-1678940D01*
X-5063490Y-1704340D01*
X-5095240Y-1729740D01*
X-5126990Y-1729740D01*
X-5158740Y-1704340D01*
X-5158740Y-1678940D01*
X-5031740Y-1653540D02*
X-4936490Y-1653540D01*
X-4984115Y-1653540D02*
X-4984115Y-1729740D01*
X-4904740Y-1653540D02*
X-4904740Y-1729740D01*
X-4809490Y-1729740D01*
X-4777740Y-1729740D02*
X-4777740Y-1653540D01*
X-4682490Y-1653540D02*
X-4682490Y-1729740D01*
X-4777740Y-1691640D02*
X-4682490Y-1691640D01*
X-4555490Y-1729740D02*
X-4650740Y-1729740D01*
X-4650740Y-1653540D01*
X-4555490Y-1653540D01*
X-4650740Y-1691640D02*
X-4587240Y-1691640D01*
X-4396740Y-1717040D02*
X-4380865Y-1729740D01*
X-4317365Y-1729740D01*
X-4301490Y-1717040D01*
X-4301490Y-1704340D01*
X-4317365Y-1691640D01*
X-4380865Y-1691640D01*
X-4396740Y-1678940D01*
X-4396740Y-1666240D01*
X-4380865Y-1653540D01*
X-4317365Y-1653540D01*
X-4301490Y-1666240D01*
X-4174490Y-1729740D02*
X-4269740Y-1729740D01*
X-4269740Y-1653540D01*
X-4174490Y-1653540D01*
X-4269740Y-1691640D02*
X-4206240Y-1691640D01*
X-4126865Y-1653540D02*
X-4063365Y-1653540D01*
X-4095115Y-1653540D02*
X-4095115Y-1729740D01*
X-4126865Y-1729740D02*
X-4063365Y-1729740D01*
X-4015740Y-1729740D02*
X-4015740Y-1653540D01*
X-3936365Y-1653540D01*
X-3920490Y-1666240D01*
X-3920490Y-1678940D01*
X-3936365Y-1691640D01*
X-4015740Y-1691640D01*
X-3888740Y-1729740D02*
X-3888740Y-1653540D01*
X-3793490Y-1653540D02*
X-3793490Y-1729740D01*
X-3888740Y-1691640D02*
X-3793490Y-1691640D01*
X-3666490Y-1729740D02*
X-3761740Y-1729740D01*
X-3761740Y-1653540D01*
X-3666490Y-1653540D01*
X-3761740Y-1691640D02*
X-3698240Y-1691640D01*
X-3634740Y-1729740D02*
X-3634740Y-1653540D01*
X-3555365Y-1653540D01*
X-3539490Y-1666240D01*
X-3539490Y-1678940D01*
X-3555365Y-1691640D01*
X-3634740Y-1691640D01*
X-3491865Y-1653540D02*
X-3428365Y-1653540D01*
X-3460115Y-1653540D02*
X-3460115Y-1729740D01*
X-3491865Y-1729740D02*
X-3428365Y-1729740D01*
X-2377440Y-1656080D02*
X-2377440Y-1732280D01*
X-2329815Y-1694180D01*
X-2282190Y-1732280D01*
X-2282190Y-1656080D01*
X-2250440Y-1719580D02*
X-2234565Y-1732280D01*
X-2171065Y-1732280D01*
X-2155190Y-1719580D01*
X-2155190Y-1706880D01*
X-2171065Y-1694180D01*
X-2234565Y-1694180D01*
X-2250440Y-1681480D01*
X-2250440Y-1668780D01*
X-2234565Y-1656080D01*
X-2171065Y-1656080D01*
X-2155190Y-1668780D01*
X-2123440Y-1732280D02*
X-2123440Y-1656080D01*
X-2028190Y-1732280D01*
X-2028190Y-1656080D01*
X-1869440Y-1732280D02*
X-1869440Y-1656080D01*
X-1790065Y-1656080D01*
X-1774190Y-1668780D01*
X-1774190Y-1681480D01*
X-1790065Y-1694180D01*
X-1869440Y-1694180D01*
X-1790065Y-1694180D02*
X-1774190Y-1706880D01*
X-1774190Y-1732280D01*
X-1647190Y-1732280D02*
X-1742440Y-1732280D01*
X-1742440Y-1656080D01*
X-1647190Y-1656080D01*
X-1742440Y-1694180D02*
X-1678940Y-1694180D01*
X-1615440Y-1732280D02*
X-1615440Y-1681480D01*
X-1583690Y-1656080D01*
X-1551940Y-1656080D01*
X-1520190Y-1681480D01*
X-1520190Y-1732280D01*
X-1615440Y-1706880D02*
X-1520190Y-1706880D01*
X-1488440Y-1732280D02*
X-1488440Y-1656080D01*
X-1424940Y-1656080D01*
X-1393190Y-1681480D01*
X-1393190Y-1706880D01*
X-1424940Y-1732280D01*
X-1488440Y-1732280D01*
X-1266190Y-1732280D02*
X-1361440Y-1732280D01*
X-1361440Y-1656080D01*
X-1266190Y-1656080D01*
X-1361440Y-1694180D02*
X-1297940Y-1694180D01*
X-1234440Y-1732280D02*
X-1234440Y-1656080D01*
X-1155065Y-1656080D01*
X-1139190Y-1668780D01*
X-1139190Y-1681480D01*
X-1155065Y-1694180D01*
X-1234440Y-1694180D01*
X-1155065Y-1694180D02*
X-1139190Y-1706880D01*
X-1139190Y-1732280D01*
X-964565Y-1668780D02*
X-948690Y-1656080D01*
X-901065Y-1656080D01*
X-885190Y-1668780D01*
X-885190Y-1681480D01*
X-901065Y-1694180D01*
X-948690Y-1694180D01*
X-964565Y-1706880D01*
X-964565Y-1732280D01*
X-885190Y-1732280D01*
X-853440Y-1719580D02*
X-853440Y-1668780D01*
X-837565Y-1656080D01*
X-774065Y-1656080D01*
X-758190Y-1668780D01*
X-758190Y-1719580D01*
X-774065Y-1732280D01*
X-837565Y-1732280D01*
X-853440Y-1719580D01*
X-853440Y-1732280D02*
X-758190Y-1656080D01*
X-710565Y-1668780D02*
X-694690Y-1656080D01*
X-647065Y-1656080D01*
X-631190Y-1668780D01*
X-631190Y-1681480D01*
X-647065Y-1694180D01*
X-694690Y-1694180D01*
X-710565Y-1706880D01*
X-710565Y-1732280D01*
X-631190Y-1732280D01*
X-504190Y-1656080D02*
X-583565Y-1656080D01*
X-583565Y-1681480D01*
X-520065Y-1681480D01*
X-504190Y-1694180D01*
X-504190Y-1719580D01*
X-520065Y-1732280D01*
X-567690Y-1732280D01*
X-583565Y-1719580D01*
X-690880Y+1569720D02*
X-690880Y+1615440D01*
X-643255Y+1615440D01*
X-633730Y+1607820D01*
X-633730Y+1600200D01*
X-643255Y+1592580D01*
X-690880Y+1592580D01*
X-614680Y+1600200D02*
X-595630Y+1615440D01*
X-576580Y+1615440D01*
X-557530Y+1600200D01*
X-557530Y+1584960D01*
X-576580Y+1569720D01*
X-595630Y+1569720D01*
X-614680Y+1584960D01*
X-614680Y+1600200D01*
X-538480Y+1615440D02*
X-538480Y+1569720D01*
X-509905Y+1592580D01*
X-481330Y+1569720D01*
X-481330Y+1615440D01*
X-405130Y+1569720D02*
X-462280Y+1569720D01*
X-462280Y+1615440D01*
X-405130Y+1615440D01*
X-462280Y+1592580D02*
X-424180Y+1592580D01*
X-386080Y+1569720D02*
X-386080Y+1615440D01*
X-338455Y+1615440D01*
X-328930Y+1607820D01*
X-328930Y+1600200D01*
X-338455Y+1592580D01*
X-386080Y+1592580D01*
X-338455Y+1592580D02*
X-328930Y+1584960D01*
X-328930Y+1569720D01*
X-457200Y+792480D02*
X-457200Y+838200D01*
X-409575Y+838200D01*
X-400050Y+830580D01*
X-400050Y+822960D01*
X-409575Y+815340D01*
X-457200Y+815340D01*
X-409575Y+815340D02*
X-400050Y+807720D01*
X-400050Y+792480D01*
X-381000Y+838200D02*
X-323850Y+792480D01*
X-381000Y+792480D02*
X-323850Y+838200D01*
X-228600Y+822960D02*
X-209550Y+838200D01*
X-190500Y+838200D01*
X-171450Y+822960D01*
X-171450Y+807720D01*
X-190500Y+792480D01*
X-209550Y+792480D01*
X-228600Y+807720D01*
X-228600Y+822960D01*
X-152400Y+792480D02*
X-152400Y+838200D01*
X-95250Y+792480D01*
X-95250Y+838200D01*
X-535940Y+429260D02*
X-478790Y+429260D01*
X-507365Y+429260D02*
X-507365Y+383540D01*
X-459740Y+429260D02*
X-402590Y+383540D01*
X-459740Y+383540D02*
X-402590Y+429260D01*
X-307340Y+414020D02*
X-288290Y+429260D01*
X-269240Y+429260D01*
X-250190Y+414020D01*
X-250190Y+398780D01*
X-269240Y+383540D01*
X-288290Y+383540D01*
X-307340Y+398780D01*
X-307340Y+414020D01*
X-231140Y+383540D02*
X-231140Y+429260D01*
X-173990Y+383540D01*
X-173990Y+429260D01*
X-604520Y+7620D02*
X-604520Y-38100D01*
X-547370Y-38100D01*
X-518795Y+7620D02*
X-480695Y+7620D01*
X-499745Y+7620D02*
X-499745Y-38100D01*
X-518795Y-38100D02*
X-480695Y-38100D01*
X-452120Y-38100D02*
X-452120Y+7620D01*
X-394970Y-38100D01*
X-394970Y+7620D01*
X-375920Y+7620D02*
X-375920Y-38100D01*
X-318770Y+7620D02*
X-347345Y-15240D01*
X-318770Y-38100D01*
X-375920Y-15240D02*
X-347345Y-15240D01*
X-358140Y-910590D02*
X-350520Y-920115D01*
X-350520Y-948690D01*
X-365760Y-967740D01*
X-381000Y-967740D01*
X-396240Y-948690D01*
X-396240Y-920115D01*
X-388620Y-910590D01*
X-381000Y-891540D02*
X-396240Y-872490D01*
X-396240Y-853440D01*
X-381000Y-834390D01*
X-365760Y-834390D01*
X-350520Y-853440D01*
X-350520Y-872490D01*
X-365760Y-891540D01*
X-381000Y-891540D01*
X-350520Y-815340D02*
X-396240Y-815340D01*
X-373380Y-786765D01*
X-396240Y-758190D01*
X-350520Y-758190D01*
X-350520Y-739140D02*
X-396240Y-739140D01*
X-373380Y-710565D01*
X-396240Y-681990D01*
X-350520Y-681990D01*
X-358140Y-662940D02*
X-350520Y-653415D01*
X-350520Y-615315D01*
X-358140Y-605790D01*
X-365760Y-605790D01*
X-373380Y-615315D01*
X-373380Y-653415D01*
X-381000Y-662940D01*
X-388620Y-662940D01*
X-396240Y-653415D01*
X-396240Y-615315D01*
X-388620Y-605790D01*
X-3070860Y+2771140D02*
X-3061335Y+2763520D01*
X-3023235Y+2763520D01*
X-3013710Y+2771140D01*
X-3013710Y+2778760D01*
X-3023235Y+2786380D01*
X-3061335Y+2786380D01*
X-3070860Y+2794000D01*
X-3070860Y+2801620D01*
X-3061335Y+2809240D01*
X-3023235Y+2809240D01*
X-3013710Y+2801620D01*
X-2937510Y+2763520D02*
X-2994660Y+2763520D01*
X-2994660Y+2809240D01*
X-2937510Y+2809240D01*
X-2994660Y+2786380D02*
X-2956560Y+2786380D01*
X-2918460Y+2763520D02*
X-2918460Y+2809240D01*
X-2880360Y+2809240D01*
X-2861310Y+2794000D01*
X-2861310Y+2778760D01*
X-2880360Y+2763520D01*
X-2918460Y+2763520D01*
X-2832735Y+2809240D02*
X-2794635Y+2809240D01*
X-2813685Y+2809240D02*
X-2813685Y+2763520D01*
X-2832735Y+2763520D02*
X-2794635Y+2763520D01*
X-2766060Y+2763520D02*
X-2766060Y+2809240D01*
X-2708910Y+2763520D01*
X-2708910Y+2809240D01*
X-2651760Y+2778760D02*
X-2632710Y+2778760D01*
X-2632710Y+2763520D01*
X-2670810Y+2763520D01*
X-2689860Y+2778760D01*
X-2689860Y+2794000D01*
X-2670810Y+2809240D01*
X-2642235Y+2809240D01*
X-2632710Y+2801620D01*
X-2480310Y+2771140D02*
X-2489835Y+2763520D01*
X-2518410Y+2763520D01*
X-2537460Y+2778760D01*
X-2537460Y+2794000D01*
X-2518410Y+2809240D01*
X-2489835Y+2809240D01*
X-2480310Y+2801620D01*
X-2461260Y+2794000D02*
X-2442210Y+2809240D01*
X-2423160Y+2809240D01*
X-2404110Y+2794000D01*
X-2404110Y+2778760D01*
X-2423160Y+2763520D01*
X-2442210Y+2763520D01*
X-2461260Y+2778760D01*
X-2461260Y+2794000D01*
X-2385060Y+2763520D02*
X-2385060Y+2809240D01*
X-2356485Y+2786380D01*
X-2327910Y+2809240D01*
X-2327910Y+2763520D01*
X-2308860Y+2763520D02*
X-2308860Y+2809240D01*
X-2280285Y+2786380D01*
X-2251710Y+2809240D01*
X-2251710Y+2763520D01*
X-2232660Y+2771140D02*
X-2223135Y+2763520D01*
X-2185035Y+2763520D01*
X-2175510Y+2771140D01*
X-2175510Y+2778760D01*
X-2185035Y+2786380D01*
X-2223135Y+2786380D01*
X-2232660Y+2794000D01*
X-2232660Y+2801620D01*
X-2223135Y+2809240D01*
X-2185035Y+2809240D01*
X-2175510Y+2801620D01*
X-5454650Y+3007360D02*
X-5511800Y+3007360D01*
X-5511800Y+3053080D01*
X-5454650Y+3053080D01*
X-5511800Y+3030220D02*
X-5473700Y+3030220D01*
X-5435600Y+3053080D02*
X-5378450Y+3007360D01*
X-5435600Y+3007360D02*
X-5378450Y+3053080D01*
X-5359400Y+3053080D02*
X-5302250Y+3053080D01*
X-5330825Y+3053080D02*
X-5330825Y+3007360D01*
X-5207000Y+3053080D02*
X-5207000Y+3030220D01*
X-5178425Y+3007360D01*
X-5149850Y+3030220D01*
X-5149850Y+3053080D01*
X-5130800Y+3037840D02*
X-5111750Y+3053080D01*
X-5092700Y+3053080D01*
X-5073650Y+3037840D01*
X-5073650Y+3022600D01*
X-5092700Y+3007360D01*
X-5111750Y+3007360D01*
X-5130800Y+3022600D01*
X-5130800Y+3037840D01*
X-5054600Y+3053080D02*
X-5054600Y+3007360D01*
X-4997450Y+3007360D01*
X-4978400Y+3053080D02*
X-4921250Y+3053080D01*
X-4949825Y+3053080D02*
X-4949825Y+3007360D01*
X-4902200Y+3007360D02*
X-4902200Y+3037840D01*
X-4883150Y+3053080D01*
X-4864100Y+3053080D01*
X-4845050Y+3037840D01*
X-4845050Y+3007360D01*
X-4902200Y+3022600D02*
X-4845050Y+3022600D01*
X-4787900Y+3022600D02*
X-4768850Y+3022600D01*
X-4768850Y+3007360D01*
X-4806950Y+3007360D01*
X-4826000Y+3022600D01*
X-4826000Y+3037840D01*
X-4806950Y+3053080D01*
X-4778375Y+3053080D01*
X-4768850Y+3045460D01*
X-4692650Y+3007360D02*
X-4749800Y+3007360D01*
X-4749800Y+3053080D01*
X-4692650Y+3053080D01*
X-4749800Y+3030220D02*
X-4711700Y+3030220D01*
X-4605020Y+149860D02*
X-4650740Y+149860D01*
X-4650740Y+197485D01*
X-4643120Y+207010D01*
X-4635500Y+207010D01*
X-4627880Y+197485D01*
X-4627880Y+149860D01*
X-4605020Y+226060D02*
X-4650740Y+226060D01*
X-4650740Y+273685D01*
X-4643120Y+283210D01*
X-4635500Y+283210D01*
X-4627880Y+273685D01*
X-4627880Y+226060D01*
X-4627880Y+273685D02*
X-4620260Y+283210D01*
X-4605020Y+283210D01*
X-4635500Y+302260D02*
X-4650740Y+321310D01*
X-4650740Y+340360D01*
X-4635500Y+359410D01*
X-4620260Y+359410D01*
X-4605020Y+340360D01*
X-4605020Y+321310D01*
X-4620260Y+302260D01*
X-4635500Y+302260D01*
X-4620260Y+416560D02*
X-4620260Y+435610D01*
X-4605020Y+435610D01*
X-4605020Y+397510D01*
X-4620260Y+378460D01*
X-4635500Y+378460D01*
X-4650740Y+397510D01*
X-4650740Y+426085D01*
X-4643120Y+435610D01*
X-4605020Y+454660D02*
X-4650740Y+454660D01*
X-4650740Y+502285D01*
X-4643120Y+511810D01*
X-4635500Y+511810D01*
X-4627880Y+502285D01*
X-4627880Y+454660D01*
X-4627880Y+502285D02*
X-4620260Y+511810D01*
X-4605020Y+511810D01*
X-4605020Y+530860D02*
X-4635500Y+530860D01*
X-4650740Y+549910D01*
X-4650740Y+568960D01*
X-4635500Y+588010D01*
X-4605020Y+588010D01*
X-4620260Y+530860D02*
X-4620260Y+588010D01*
X-4605020Y+607060D02*
X-4650740Y+607060D01*
X-4627880Y+635635D01*
X-4650740Y+664210D01*
X-4605020Y+664210D01*
X-4605020Y+683260D02*
X-4650740Y+683260D01*
X-4627880Y+711835D01*
X-4650740Y+740410D01*
X-4605020Y+740410D01*
X-4605020Y+816610D02*
X-4605020Y+759460D01*
X-4650740Y+759460D01*
X-4650740Y+816610D01*
X-4627880Y+759460D02*
X-4627880Y+797560D01*
X-4605020Y+835660D02*
X-4650740Y+835660D01*
X-4650740Y+883285D01*
X-4643120Y+892810D01*
X-4635500Y+892810D01*
X-4627880Y+883285D01*
X-4627880Y+835660D01*
X-4627880Y+883285D02*
X-4620260Y+892810D01*
X-4605020Y+892810D01*
D38*
X-2926080Y+1226185D02*
X-2865120Y+1226185D01*
X-2860040Y+1226185D02*
X-2829560Y+1226185D01*
X-2814320Y+1226185D02*
X-2733040Y+1226185D01*
X-2707640Y+1226185D02*
X-2682240Y+1226185D01*
X-2915920Y+1231265D02*
X-2905760Y+1231265D01*
X-2875280Y+1231265D02*
X-2865120Y+1231265D01*
X-2849880Y+1231265D02*
X-2839720Y+1231265D01*
X-2809240Y+1231265D02*
X-2794000Y+1231265D01*
X-2773680Y+1231265D02*
X-2763520Y+1231265D01*
X-2748280Y+1231265D02*
X-2738120Y+1231265D01*
X-2702560Y+1231265D02*
X-2687320Y+1231265D01*
X-2915920Y+1236345D02*
X-2905760Y+1236345D01*
X-2870200Y+1236345D02*
X-2865120Y+1236345D01*
X-2849880Y+1236345D02*
X-2839720Y+1236345D01*
X-2814320Y+1236345D02*
X-2799080Y+1236345D01*
X-2773680Y+1236345D02*
X-2763520Y+1236345D01*
X-2743200Y+1236345D02*
X-2738120Y+1236345D01*
X-2702560Y+1236345D02*
X-2692400Y+1236345D01*
X-2915920Y+1241425D02*
X-2905760Y+1241425D01*
X-2865120Y+1241425D02*
X-2860040Y+1241425D01*
X-2849880Y+1241425D02*
X-2839720Y+1241425D01*
X-2819400Y+1241425D02*
X-2804160Y+1241425D01*
X-2773680Y+1241425D02*
X-2763520Y+1241425D01*
X-2743200Y+1241425D02*
X-2738120Y+1241425D01*
X-2702560Y+1241425D02*
X-2692400Y+1241425D01*
X-2915920Y+1246505D02*
X-2905760Y+1246505D01*
X-2849880Y+1246505D02*
X-2839720Y+1246505D01*
X-2824480Y+1246505D02*
X-2809240Y+1246505D01*
X-2773680Y+1246505D02*
X-2763520Y+1246505D01*
X-2738120Y+1246505D02*
X-2733040Y+1246505D01*
X-2707640Y+1246505D02*
X-2697480Y+1246505D01*
X-2915920Y+1251585D02*
X-2905760Y+1251585D01*
X-2880360Y+1251585D02*
X-2875280Y+1251585D01*
X-2849880Y+1251585D02*
X-2839720Y+1251585D01*
X-2829560Y+1251585D02*
X-2814320Y+1251585D01*
X-2773680Y+1251585D02*
X-2763520Y+1251585D01*
X-2738120Y+1251585D02*
X-2697480Y+1251585D01*
X-2915920Y+1256665D02*
X-2905760Y+1256665D01*
X-2880360Y+1256665D02*
X-2875280Y+1256665D01*
X-2849880Y+1256665D02*
X-2839720Y+1256665D01*
X-2834640Y+1256665D02*
X-2819400Y+1256665D01*
X-2773680Y+1256665D02*
X-2763520Y+1256665D01*
X-2733040Y+1256665D02*
X-2727960Y+1256665D01*
X-2707640Y+1256665D02*
X-2697480Y+1256665D01*
X-2915920Y+1261745D02*
X-2875280Y+1261745D01*
X-2849880Y+1261745D02*
X-2824480Y+1261745D01*
X-2773680Y+1261745D02*
X-2763520Y+1261745D01*
X-2733040Y+1261745D02*
X-2727960Y+1261745D01*
X-2712720Y+1261745D02*
X-2702560Y+1261745D01*
X-2915920Y+1266825D02*
X-2905760Y+1266825D01*
X-2880360Y+1266825D02*
X-2875280Y+1266825D01*
X-2849880Y+1266825D02*
X-2839720Y+1266825D01*
X-2829560Y+1266825D02*
X-2824480Y+1266825D01*
X-2773680Y+1266825D02*
X-2763520Y+1266825D01*
X-2727960Y+1266825D02*
X-2722880Y+1266825D01*
X-2712720Y+1266825D02*
X-2702560Y+1266825D01*
X-2915920Y+1271905D02*
X-2905760Y+1271905D01*
X-2880360Y+1271905D02*
X-2875280Y+1271905D01*
X-2849880Y+1271905D02*
X-2839720Y+1271905D01*
X-2824480Y+1271905D02*
X-2819400Y+1271905D01*
X-2773680Y+1271905D02*
X-2763520Y+1271905D01*
X-2727960Y+1271905D02*
X-2722880Y+1271905D01*
X-2712720Y+1271905D02*
X-2702560Y+1271905D01*
X-2915920Y+1276985D02*
X-2905760Y+1276985D01*
X-2849880Y+1276985D02*
X-2839720Y+1276985D01*
X-2819400Y+1276985D02*
X-2814320Y+1276985D01*
X-2773680Y+1276985D02*
X-2763520Y+1276985D01*
X-2727960Y+1276985D02*
X-2722880Y+1276985D01*
X-2717800Y+1276985D02*
X-2707640Y+1276985D01*
X-2915920Y+1282065D02*
X-2905760Y+1282065D01*
X-2870200Y+1282065D02*
X-2865120Y+1282065D01*
X-2849880Y+1282065D02*
X-2839720Y+1282065D01*
X-2814320Y+1282065D02*
X-2809240Y+1282065D01*
X-2773680Y+1282065D02*
X-2763520Y+1282065D01*
X-2722880Y+1282065D02*
X-2707640Y+1282065D01*
X-2915920Y+1287145D02*
X-2905760Y+1287145D01*
X-2875280Y+1287145D02*
X-2865120Y+1287145D01*
X-2849880Y+1287145D02*
X-2839720Y+1287145D01*
X-2809240Y+1287145D02*
X-2799080Y+1287145D01*
X-2773680Y+1287145D02*
X-2763520Y+1287145D01*
X-2722880Y+1287145D02*
X-2712720Y+1287145D01*
X-2926080Y+1292225D02*
X-2865120Y+1292225D01*
X-2860040Y+1292225D02*
X-2829560Y+1292225D01*
X-2814320Y+1292225D02*
X-2788920Y+1292225D01*
X-2783840Y+1292225D02*
X-2753360Y+1292225D01*
X-2717800Y+1292225D02*
X-2712720Y+1292225D01*
X-4914900Y+3470275D02*
X-4914900Y+3475355D01*
X-4909820Y+3470275D02*
X-4909820Y+3475355D01*
X-4904740Y+3470275D02*
X-4904740Y+3475355D01*
X-4899660Y+3455035D02*
X-4899660Y+3490595D01*
X-4894580Y+3470275D02*
X-4894580Y+3475355D01*
X-4889500Y+3470275D02*
X-4889500Y+3475355D01*
X-4884420Y+3470275D02*
X-4884420Y+3475355D01*
X-5240020Y+3475355D02*
X-5240020Y+3480435D01*
X-5234940Y+3475355D02*
X-5234940Y+3480435D01*
X-5229860Y+3475355D02*
X-5229860Y+3480435D01*
D32*
X-5674680Y-1982760D02*
X-74320Y-1982760D01*
X-74320Y+3859660D01*
X-5674680Y+3859660D01*
X-5674680Y-1982760D01*
D33*
X-4063900Y+2859500D02*
X-4064031Y+2862658D01*
X-4065097Y+2868976D01*
X-4067328Y+2875294D01*
X-4070973Y+2881612D01*
X-4076548Y+2887851D01*
X-4082866Y+2892447D01*
X-4089184Y+2895380D01*
X-4095502Y+2897042D01*
X-4101820Y+2897600D01*
X-4102000Y+2897600D01*
X-4140100Y+2859500D02*
X-4139969Y+2862658D01*
X-4138903Y+2868976D01*
X-4136672Y+2875294D01*
X-4133027Y+2881612D01*
X-4127452Y+2887851D01*
X-4121134Y+2892447D01*
X-4114816Y+2895380D01*
X-4108498Y+2897042D01*
X-4102180Y+2897600D01*
X-4102000Y+2897600D01*
X-4140100Y+2859500D02*
X-4139969Y+2856342D01*
X-4138903Y+2850024D01*
X-4136672Y+2843706D01*
X-4133027Y+2837388D01*
X-4127452Y+2831149D01*
X-4121134Y+2826553D01*
X-4114816Y+2823620D01*
X-4108498Y+2821958D01*
X-4102180Y+2821400D01*
X-4102000Y+2821400D01*
X-4063900Y+2859500D02*
X-4064031Y+2856342D01*
X-4065097Y+2850024D01*
X-4067328Y+2843706D01*
X-4070973Y+2837388D01*
X-4076548Y+2831149D01*
X-4082866Y+2826553D01*
X-4089184Y+2823620D01*
X-4095502Y+2821958D01*
X-4101820Y+2821400D01*
X-4102000Y+2821400D01*
D34*
X-4584600Y+2846800D02*
X-1841400Y+2846800D01*
X-1841400Y+3507200D01*
X-4584600Y+3507200D01*
X-4584600Y+2846800D01*
D35*
X-3340000Y+3575780D02*
X-3340000Y+3560540D01*
X-3324125Y+3545300D01*
X-3260625Y+3545300D01*
X-3244750Y+3560540D01*
X-3244750Y+3636740D01*
X-3117750Y+3636740D02*
X-3197125Y+3636740D01*
X-3197125Y+3606260D01*
X-3133625Y+3606260D01*
X-3117750Y+3591020D01*
X-3117750Y+3560540D01*
X-3133625Y+3545300D01*
X-3181250Y+3545300D01*
X-3197125Y+3560540D01*
D33*
X-441400Y-190000D02*
X-441531Y-186842D01*
X-442597Y-180524D01*
X-444828Y-174206D01*
X-448473Y-167888D01*
X-454048Y-161649D01*
X-460366Y-157053D01*
X-466684Y-154120D01*
X-473002Y-152458D01*
X-479320Y-151900D01*
X-479500Y-151900D01*
X-517600Y-190000D02*
X-517469Y-186842D01*
X-516403Y-180524D01*
X-514172Y-174206D01*
X-510527Y-167888D01*
X-504952Y-161649D01*
X-498634Y-157053D01*
X-492316Y-154120D01*
X-485998Y-152458D01*
X-479680Y-151900D01*
X-479500Y-151900D01*
X-517600Y-190000D02*
X-517469Y-193158D01*
X-516403Y-199476D01*
X-514172Y-205794D01*
X-510527Y-212112D01*
X-504952Y-218351D01*
X-498634Y-222947D01*
X-492316Y-225880D01*
X-485998Y-227542D01*
X-479680Y-228100D01*
X-479500Y-228100D01*
X-441400Y-190000D02*
X-441531Y-193158D01*
X-442597Y-199476D01*
X-444828Y-205794D01*
X-448473Y-212112D01*
X-454048Y-218351D01*
X-460366Y-222947D01*
X-466684Y-225880D01*
X-473002Y-227542D01*
X-479320Y-228100D01*
X-479500Y-228100D01*
D34*
X-550620Y-1259850D02*
X-550620Y-120150D01*
X-594135Y-120150D01*
X-789380Y-120150D02*
X-789380Y-1259850D01*
X-745865Y-1259850D01*
X-594135Y-1259850D02*
X-550620Y-1259850D01*
X-745865Y-120150D02*
X-789380Y-120150D01*
D35*
X-857960Y-817000D02*
X-842720Y-817000D01*
X-827480Y-801125D01*
X-827480Y-737625D01*
X-842720Y-721750D01*
X-918920Y-721750D01*
X-903680Y-674125D02*
X-918920Y-658250D01*
X-918920Y-610625D01*
X-903680Y-594750D01*
X-888440Y-594750D01*
X-873200Y-610625D01*
X-873200Y-658250D01*
X-857960Y-674125D01*
X-827480Y-674125D01*
X-827480Y-594750D01*
X-2661750Y+275720D02*
X-2677625Y+260480D01*
X-2725250Y+260480D01*
X-2757000Y+290960D01*
X-2757000Y+321440D01*
X-2725250Y+351920D01*
X-2677625Y+351920D01*
X-2661750Y+336680D01*
X-2598250Y+306200D02*
X-2614125Y+321440D01*
X-2614125Y+336680D01*
X-2598250Y+351920D01*
X-2550625Y+351920D01*
X-2534750Y+336680D01*
X-2534750Y+321440D01*
X-2550625Y+306200D01*
X-2598250Y+306200D01*
X-2614125Y+290960D01*
X-2614125Y+275720D01*
X-2598250Y+260480D01*
X-2550625Y+260480D01*
X-2534750Y+275720D01*
X-2534750Y+290960D01*
X-2550625Y+306200D01*
X-3071750Y+465720D02*
X-3087625Y+450480D01*
X-3135250Y+450480D01*
X-3167000Y+480960D01*
X-3167000Y+511440D01*
X-3135250Y+541920D01*
X-3087625Y+541920D01*
X-3071750Y+526680D01*
X-2944750Y+511440D02*
X-2960625Y+496200D01*
X-3008250Y+496200D01*
X-3024125Y+511440D01*
X-3024125Y+526680D01*
X-3008250Y+541920D01*
X-2960625Y+541920D01*
X-2944750Y+526680D01*
X-2944750Y+465720D01*
X-2960625Y+450480D01*
X-3008250Y+450480D01*
X-3465720Y+1788250D02*
X-3450480Y+1772375D01*
X-3450480Y+1724750D01*
X-3480960Y+1693000D01*
X-3511440Y+1693000D01*
X-3541920Y+1724750D01*
X-3541920Y+1772375D01*
X-3526680Y+1788250D01*
X-3541920Y+1835875D02*
X-3541920Y+1915250D01*
X-3526680Y+1915250D01*
X-3450480Y+1835875D01*
D39*
X-2927540Y+2730000D02*
X-2927540Y+2590000D01*
X-2907540Y+2730000D02*
X-2907540Y+2590000D01*
X-2957540Y+2590000D02*
X-2797540Y+2590000D01*
X-2797540Y+2730000D01*
X-2957540Y+2730000D01*
X-2957540Y+2590000D01*
D35*
X-3304475Y+2645560D02*
X-3304475Y+2737000D01*
X-3240975Y+2737000D01*
X-3209225Y+2706520D01*
X-3209225Y+2676040D01*
X-3240975Y+2645560D01*
X-3304475Y+2645560D01*
X-3082225Y+2737000D02*
X-3161600Y+2737000D01*
X-3161600Y+2706520D01*
X-3098100Y+2706520D01*
X-3082225Y+2691280D01*
X-3082225Y+2660800D01*
X-3098100Y+2645560D01*
X-3145725Y+2645560D01*
X-3161600Y+2660800D01*
D36*
X-2890000Y+2430000D02*
X-2890000Y+2350000D01*
D35*
X-3090500Y+2470480D02*
X-3090500Y+2561920D01*
X-3011125Y+2561920D01*
X-2995250Y+2546680D01*
X-2995250Y+2531440D01*
X-3011125Y+2516200D01*
X-3090500Y+2516200D01*
X-3011125Y+2516200D02*
X-2995250Y+2500960D01*
X-2995250Y+2470480D01*
X-2931750Y+2531440D02*
X-2900000Y+2561920D01*
X-2900000Y+2470480D01*
X-2836500Y+2485720D02*
X-2836500Y+2546680D01*
X-2820625Y+2561920D01*
X-2757125Y+2561920D01*
X-2741250Y+2546680D01*
X-2741250Y+2485720D01*
X-2757125Y+2470480D01*
X-2820625Y+2470480D01*
X-2836500Y+2485720D01*
X-2836500Y+2470480D02*
X-2741250Y+2561920D01*
D37*
X-1660000Y+3350000D02*
X-1660000Y+2830004D01*
X-360000Y+2830004D01*
X-360000Y+3350000D01*
X-1660000Y+3350000D01*
D36*
X-1400000Y+3560000D02*
X-1400035Y+3560831D01*
X-1400316Y+3562495D01*
X-1400906Y+3564159D01*
X-1401870Y+3565823D01*
X-1403345Y+3567464D01*
X-1405009Y+3568665D01*
X-1406673Y+3569430D01*
X-1408337Y+3569861D01*
X-1410000Y+3570000D01*
X-1420000Y+3560000D02*
X-1419965Y+3560831D01*
X-1419684Y+3562495D01*
X-1419094Y+3564159D01*
X-1418130Y+3565823D01*
X-1416655Y+3567464D01*
X-1414991Y+3568665D01*
X-1413327Y+3569430D01*
X-1411663Y+3569861D01*
X-1410000Y+3570000D01*
X-1420000Y+3560000D02*
X-1419965Y+3559169D01*
X-1419684Y+3557505D01*
X-1419094Y+3555841D01*
X-1418130Y+3554177D01*
X-1416655Y+3552536D01*
X-1414991Y+3551335D01*
X-1413327Y+3550570D01*
X-1411663Y+3550139D01*
X-1410000Y+3550000D01*
X-1400000Y+3560000D02*
X-1400035Y+3559169D01*
X-1400316Y+3557505D01*
X-1400906Y+3555841D01*
X-1401870Y+3554177D01*
X-1403345Y+3552536D01*
X-1405009Y+3551335D01*
X-1406673Y+3550570D01*
X-1408337Y+3550139D01*
X-1410000Y+3550000D01*
D35*
X-1137000Y+3701920D02*
X-1137000Y+3625720D01*
X-1121125Y+3610480D01*
X-1057625Y+3610480D01*
X-1041750Y+3625720D01*
X-1041750Y+3701920D01*
X-914750Y+3686680D02*
X-930625Y+3701920D01*
X-978250Y+3701920D01*
X-994125Y+3686680D01*
X-994125Y+3625720D01*
X-978250Y+3610480D01*
X-930625Y+3610480D01*
X-914750Y+3625720D01*
X-914750Y+3640960D01*
X-930625Y+3656200D01*
X-994125Y+3656200D01*
M02*
